<?xml version="1.0" encoding="utf-8"?>
<!-- Generator: Adobe Illustrator 16.0.0, SVG Export Plug-In . SVG Version: 6.00 Build 0)  -->
<!DOCTYPE svg PUBLIC "-//W3C//DTD SVG 1.1//EN" "http://www.w3.org/Graphics/SVG/1.1/DTD/svg11.dtd">
<svg version="1.1" id="Layer_1" xmlns="http://www.w3.org/2000/svg" xmlns:xlink="http://www.w3.org/1999/xlink" x="0px" y="0px"
	 width="200px" height="200px" viewBox="0 0 200 200" enable-background="new 0 0 200 200" xml:space="preserve">
<g>
	<g>
		<g>
			<path fill="#FAAB9E" d="M113.79,115.971c-2.297-4.598-0.918-15.173-0.918-15.173l-12.876-0.922l-12.875,0.922
				c0,0,1.379,10.576-0.92,15.173c-2.3,4.6-23.453,6.898-23.453,6.898s0,5.52,3.68,12.875c2.899,5.805,22.091,8.459,30.084,9.326
				c2.318,0.248,4.651,0.248,6.969,0c7.993-0.867,27.183-3.521,30.083-9.326c3.682-7.355,3.682-12.875,3.682-12.875
				S116.091,120.57,113.79,115.971z"/>
		</g>
		<g>
			<path fill="#ED998D" d="M113.79,115.971c-2.297-4.598-0.918-15.173-0.918-15.173l-12.876-0.922l-12.875,0.922
				c0,0,0.446,3.43,0.407,7.236c4.555,5.209,10.68,9.508,18.927,11.213c6.025,1.242,11.52,1.504,16.449,1.102
				C118.567,119.252,114.702,117.791,113.79,115.971z"/>
		</g>
	</g>
	<g>
		<g>
			<g>
				<path fill="#FAAB9E" d="M68.494,71.188c0,0-2.989-6.874-8.668-4.187c-5.678,2.69-0.896,14.944,4.783,16.441
					c5.679,1.494,7.173-1.195,6.576-5.083C70.586,74.474,68.494,71.188,68.494,71.188z"/>
			</g>
			<g>
				<path fill="#ED998D" d="M69.03,75.06c0,0-4.442-8.156-8.238-5.489c-2.737,1.918,0.565,7.832,0.646,6.457
					c0.081-1.37-1.938-4.28-0.404-4.925c1.535-0.644,4.039,0.807,3.392,2.099c-0.646,1.292-1.454,4.201-0.242,4.039
					c1.211-0.161,2.261-0.968,2.261-0.161c0,0.806-1.454,0.97-0.728,2.665c0.728,1.696,3.877,1.777,4.039-0.482
					C69.919,77,69.03,75.06,69.03,75.06z"/>
			</g>
		</g>
		<g>
			<g>
				<path fill="#FAAB9E" d="M131.497,71.188c0,0,2.988-6.874,8.668-4.187c5.678,2.69,0.896,14.944-4.781,16.441
					c-5.68,1.494-7.176-1.195-6.578-5.083C129.405,74.474,131.497,71.188,131.497,71.188z"/>
			</g>
			<g>
				<path fill="#ED998D" d="M131.226,75.06c0,0,4.443-8.156,8.24-5.489c2.736,1.918-0.564,7.832-0.646,6.457
					c-0.082-1.37,1.938-4.28,0.404-4.925c-1.535-0.644-4.039,0.807-3.393,2.099s1.455,4.201,0.242,4.039
					c-1.211-0.161-2.264-0.968-2.264-0.161c0,0.806,1.457,0.97,0.73,2.665c-0.73,1.696-3.879,1.777-4.039-0.482
					C130.339,77,131.226,75.06,131.226,75.06z"/>
			</g>
		</g>
		<g>
			<path fill="#FAAB9E" d="M133.472,39.439c-6.576-20.026-33.476-20.026-33.476-20.026s-26.901,0-33.477,20.026
				c-5.042,15.358-1.793,44.239,8.669,58.586c2.598,3.561,5.436,6.314,8.234,8.438c9.85,7.479,23.296,7.479,33.147,0
				c2.799-2.124,5.637-4.877,8.234-8.438C135.267,83.678,138.515,54.797,133.472,39.439z"/>
		</g>
		<path fill="#ED9B90" d="M102.324,98.657c0.396-0.27-5.04,0.361-8.64-1.201C93.684,97.456,96.685,102.496,102.324,98.657z"/>
		<path fill="#ED9B90" d="M109.425,20.595c7.027,11.682,18.576,34.625,14.939,54.427c-3.973,21.628-12.051,33.335-25.817,36.99
			c6.301,0.336,12.688-1.502,18.022-5.549c2.799-2.124,5.637-4.877,8.234-8.438c10.463-14.347,13.711-43.228,8.668-58.586
			C129.452,27.2,117.847,22.448,109.425,20.595z"/>
		<g>
			<path fill="#C3634B" d="M100.166,86.578c-0.204,0-0.375-0.013-0.505-0.038c-0.31-0.062-0.51-0.362-0.447-0.673
				c0.062-0.307,0.374-0.507,0.669-0.445c0.795,0.164,5.038-0.562,6.534-2.619c0.98-1.348-1.299-5.299-2.964-8.184
				c-0.682-1.18-1.324-2.293-1.761-3.222c-1.451-3.082,0.825-5.668,2.231-6.604c0.262-0.176,0.613-0.104,0.789,0.157
				c0.175,0.263,0.104,0.615-0.156,0.789c-0.133,0.091-3.225,2.214-1.834,5.174c0.417,0.883,1.048,1.977,1.717,3.136
				c2.122,3.675,4.317,7.478,2.899,9.423C105.755,85.649,101.854,86.578,100.166,86.578z"/>
		</g>
		<g>
			<path fill="#C3634B" d="M100.821,96.389c-8.57,0-11.667-5.316-11.82-5.588c-0.154-0.274-0.056-0.617,0.218-0.773
				c0.272-0.152,0.62-0.056,0.775,0.216c0.166,0.293,4.217,7.139,16.321,4.331c0.311-0.071,0.613,0.12,0.686,0.426
				c0.07,0.307-0.121,0.611-0.428,0.684C104.429,96.181,102.518,96.389,100.821,96.389z"/>
		</g>
		<g>
			<circle fill="#5E1608" cx="85.156" cy="69.496" r="3.885"/>
		</g>
		<circle fill="#FFFFFF" cx="86.755" cy="70.176" r="1.252"/>
		<g>
			<circle fill="#5E1608" cx="115.314" cy="69.496" r="3.886"/>
		</g>
		<circle fill="#FFFFFF" cx="116.912" cy="70.176" r="1.253"/>
		<g>
			<path fill="#5E1608" d="M89.301,60.395c0,0-3.453-3.602-7.356-2.1c-3.904,1.498-5.254,4.353-5.254,4.353
				S83.146,58.145,89.301,60.395z"/>
		</g>
		<g>
			<path fill="#5E1608" d="M110.167,60.395c0,0,3.451-3.602,7.357-2.1c3.902,1.498,5.252,4.353,5.252,4.353
				S116.323,58.145,110.167,60.395z"/>
		</g>
	</g>
	<path fill="#153E7E" d="M168.161,191.998H31.838c0,0,1.801-48.689,10.817-60.953c8.12-11.031,35.21-14.473,40.548-15.043
		c1.563,7.342,8.488,12.885,16.792,12.885c8.303,0,15.227-5.543,16.792-12.885c5.336,0.57,32.438,4.012,40.549,15.043
		C166.351,143.309,168.161,191.998,168.161,191.998z"/>
	<g>
		<g>
			<path fill="#0D2D5B" d="M58.799,155.664c-0.043,0.164-3.333,15.648-4.303,36.334h-2.146c0.959-20.934,4.303-36.623,4.335-36.785
				c0.13-0.582,0.702-0.961,1.283-0.832C58.55,154.51,58.928,155.082,58.799,155.664z"/>
		</g>
		<g>
			<path fill="#0D2D5B" d="M147.649,191.998h-2.154c-0.973-20.686-4.26-36.17-4.305-36.334c-0.117-0.582,0.248-1.154,0.828-1.283
				c0.586-0.129,1.156,0.25,1.285,0.832C143.337,155.375,146.681,171.064,147.649,191.998z"/>
		</g>
	</g>
	<g>
		<path fill="#5E1608" d="M67.386,80.224c0,0-0.526-5.938-7.02-24.97c-5.345-15.665,3.928-25.747,3.928-25.747
			s-7.423,3.711-7.423,1.855s8.659-10.825,15.154-13.298c6.495-2.474,7.731-2.474,7.731-2.474s-10.515,1.235-8.351-0.617
			c2.165-1.859,8.875-4.725,17.844-4.725c8.968,0,12.774,1.63,12.774,1.63s-7.422-2.783-6.495-3.092
			c0.928-0.311,9.551-2.418,17.902,1.909c8.35,4.331,9.621,7.058,9.621,6.13c0-0.927-1.855-5.875,0-4.639
			c1.855,1.235,3.711,6.494,3.711,6.494s7.732-1.855,7.113-0.928s-5.875,4.331-5.875,4.331s8.879,3.165,11.133,8.969
			c7.656,19.723-3.764,30.693-5.877,47.934c0,0-0.871-14.203-3.035-17.913c-2.164-3.713-6.24-10.23-7.479-15.177
			c-1.227-4.905-1.236-9.506-1.236-9.585c0.002,0.519-7.002,4.094-7.703,4.483c-3.631,2.022-7.395,3.81-11.255,5.347
			c0.85-2.366,1.701-4.728,2.552-7.092c-4.947,6.023-11.99,10.291-19.619,11.888c1.197-2.576,2.064-5.305,2.577-8.103
			c-2.409,2.527-4.817,5.06-7.225,7.59c-2.415,2.535-4.966,5.364-5.237,8.856c-0.012-2.47-0.023-4.942-0.035-7.41
			c0.004,0.738-1.563,2.566-1.882,3.382c-0.494,1.26-0.716,2.594-1.127,3.872c-0.67,2.079-1.474,4.159-2.147,6.256
			C68.84,70.244,68.427,73.163,67.386,80.224z"/>
	</g>
	<path opacity="0.5" fill="#153E7E" d="M168.161,191.998c0,0-1.811-48.689-10.826-60.953c-8.111-11.031-35.213-14.473-40.549-15.043
		c-0.346,1.621-0.965,3.146-1.791,4.551c1.256,0.262,12.615,3.012,18.215,17.77c4.162,10.973,0.363,37.855-1.531,53.676H168.161z"/>
	<path fill="#FFFFFF" d="M79.986,116.395c1.78,8.84,10.055,15.531,20.009,15.531s18.228-6.691,20.009-15.531
		c-1.391-0.189-2.502-0.322-3.213-0.398c-1.568,7.352-8.49,12.889-16.796,12.889c-8.306,0-15.228-5.537-16.794-12.889
		C82.489,116.072,81.378,116.205,79.986,116.395z"/>
</g>
</svg>
