<?xml version="1.0" encoding="utf-8"?>
<!-- Generator: Adobe Illustrator 16.0.0, SVG Export Plug-In . SVG Version: 6.00 Build 0)  -->
<!DOCTYPE svg PUBLIC "-//W3C//DTD SVG 1.1//EN" "http://www.w3.org/Graphics/SVG/1.1/DTD/svg11.dtd">
<svg version="1.1" id="Layer_1" xmlns="http://www.w3.org/2000/svg" xmlns:xlink="http://www.w3.org/1999/xlink" x="0px" y="0px"
	 width="200px" height="200px" viewBox="0 0 200 200" enable-background="new 0 0 200 200" xml:space="preserve">
<g>
	<g>
		<g>
			<path fill="#ED998D" d="M113.791,113.516c-2.3-4.599-0.917-15.175-0.917-15.175l-12.878-0.918L87.121,98.34
				c0,0,1.381,10.577-0.92,15.175c-2.299,4.601-23.454,6.899-23.454,6.899s0,5.519,3.679,12.875
				c2.9,5.801,22.093,8.456,30.086,9.322c2.317,0.25,4.649,0.25,6.969,0c7.993-0.866,27.184-3.521,30.084-9.322
				c3.681-7.356,3.681-12.875,3.681-12.875S116.092,118.116,113.791,113.516z"/>
		</g>
		<g>
			<path fill="#E08880" d="M113.791,113.516c-2.3-4.599-0.917-15.175-0.917-15.175l-12.878-0.918L87.121,98.34
				c0,0,0.447,3.433,0.404,7.236c4.557,5.21,10.682,9.512,18.929,11.213c6.024,1.245,11.521,1.505,16.448,1.105
				C118.567,116.796,114.701,115.338,113.791,113.516z"/>
		</g>
	</g>
	<g>
		<g>
			<path fill="#ED998D" d="M68.497,68.731c0,0-2.988-6.875-8.668-4.184c-5.681,2.69-0.9,14.944,4.78,16.439
				c5.679,1.494,7.176-1.196,6.574-5.082C70.586,72.019,68.497,68.731,68.497,68.731z"/>
		</g>
		<g>
			<path fill="#E08880" d="M69.031,72.604c0,0-4.44-8.157-8.237-5.492c-2.738,1.922,0.564,7.834,0.644,6.462
				c0.085-1.373-1.936-4.281-0.403-4.927c1.535-0.646,4.04,0.808,3.393,2.1c-0.645,1.292-1.454,4.2-0.241,4.039
				c1.209-0.162,2.262-0.969,2.262-0.162c0,0.808-1.454,0.969-0.729,2.666c0.729,1.696,3.878,1.776,4.042-0.485
				C69.92,74.543,69.031,72.604,69.031,72.604z"/>
		</g>
	</g>
	<g>
		<g>
			<path fill="#ED998D" d="M131.497,68.731c0,0,2.987-6.875,8.668-4.184c5.679,2.69,0.898,14.944-4.782,16.439
				c-5.679,1.494-7.174-1.196-6.575-5.082C129.405,72.019,131.497,68.731,131.497,68.731z"/>
		</g>
		<g>
			<path fill="#E08880" d="M131.228,72.604c0,0,4.44-8.157,8.239-5.492c2.736,1.922-0.565,7.834-0.646,6.462
				c-0.079-1.373,1.936-4.281,0.402-4.927c-1.535-0.646-4.037,0.808-3.392,2.1c0.646,1.292,1.454,4.2,0.239,4.039
				c-1.207-0.162-2.26-0.969-2.26-0.162c0,0.808,1.455,0.969,0.729,2.666c-0.729,1.696-3.878,1.776-4.036-0.485
				C130.34,74.543,131.228,72.604,131.228,72.604z"/>
		</g>
	</g>
	<g>
		<path fill="#ED998D" d="M133.472,36.984c-6.575-20.026-33.476-20.026-33.476-20.026s-26.901,0-33.476,20.026
			c-5.042,15.358-1.791,44.236,8.666,58.583c2.6,3.563,5.439,6.316,8.236,8.441c9.852,7.476,23.297,7.476,33.149,0
			c2.794-2.125,5.634-4.877,8.233-8.441C135.267,81.22,138.517,52.342,133.472,36.984z"/>
	</g>
	<path fill="#E38C83" d="M109.343,102.225c-7.328,5.372-15.595,5.477-21.523,4.494c9.201,4.597,20.299,3.704,28.753-2.711
		c2.794-2.125,5.634-4.877,8.233-8.441c10.461-14.347,13.711-43.225,8.666-58.583c-6.575-20.026-33.476-20.026-33.476-20.026
		s-3.399,0.005-8.075,0.903c5.559,2.965,26.553,21.041,29.788,33.575C125.241,65.126,122.59,92.508,109.343,102.225z"/>
	<g>
		<path fill="#C3634B" d="M100.166,84.123c-0.202,0-0.374-0.014-0.503-0.04c-0.311-0.062-0.512-0.361-0.448-0.671
			c0.063-0.31,0.374-0.508,0.67-0.446c0.78,0.156,5.034-0.56,6.534-2.62c0.982-1.349-1.299-5.298-2.965-8.181
			c-0.682-1.181-1.325-2.295-1.761-3.224c-1.45-3.081,0.825-5.668,2.229-6.606c0.263-0.175,0.617-0.104,0.791,0.158
			c0.176,0.26,0.106,0.614-0.156,0.789c-0.135,0.089-3.224,2.214-1.834,5.174c0.417,0.884,1.051,1.979,1.717,3.138
			c2.125,3.675,4.319,7.475,2.901,9.421C105.756,83.194,101.854,84.123,100.166,84.123z"/>
	</g>
	<g>
		<circle fill="#1A1A1A" cx="85.157" cy="67.04" r="3.468"/>
	</g>
	<circle fill="#FFFFFF" cx="86.142" cy="65.937" r="0.904"/>
	<g>
		<circle fill="#1A1A1A" cx="115.579" cy="67.04" r="3.469"/>
	</g>
	<circle fill="#FFFFFF" cx="116.638" cy="65.937" r="0.904"/>
	<g>
		<path fill="#1A1A1A" d="M89.118,56.319c0,0-4.263-2.596-7.647-0.144c-3.39,2.452-3.965,5.556-3.965,5.556
			S82.591,55.722,89.118,56.319z"/>
	</g>
	<g>
		<path fill="#1A1A1A" d="M110.286,56.62c0,0,4.128-2.801,7.632-0.518c3.502,2.285,4.229,5.357,4.229,5.357
			S116.774,55.704,110.286,56.62z"/>
	</g>
	<g>
		<path fill="#A5BAFA" d="M168.162,189.543H31.838c0,0,1.803-48.691,10.818-60.954c8.118-11.031,35.213-14.472,40.548-15.044
			c1.564,7.346,8.485,12.889,16.792,12.889c8.302,0,15.226-5.543,16.788-12.889c5.338,0.572,32.439,4.013,40.551,15.044
			C166.35,140.852,168.162,189.543,168.162,189.543z"/>
	</g>
	<g>
		<path fill="#9BB2F0" d="M168.162,189.543c0,0-1.813-48.691-10.827-60.954c-8.111-11.031-35.213-14.472-40.551-15.044
			c-0.344,1.622-0.966,3.147-1.789,4.555c1.257,0.262,12.616,3.009,18.217,17.769c4.161,10.969,0.362,37.852-1.535,53.675H168.162z"
			/>
	</g>
	<g>
		<g>
			<path fill="#7085E7" d="M156.81,127.938c-3.131-3.794-8.526-6.656-14.404-8.784h-28.084c-3.058,4.377-8.326,7.279-14.325,7.279
				c-6.001,0-11.269-2.902-14.327-7.279H57.591c-5.882,2.128-11.275,4.99-14.412,8.784H156.81z"/>
		</g>
		<g>
			<path fill="#7085E7" d="M163.625,147.039c-0.615-3.132-1.312-6.104-2.093-8.783H38.458c-0.781,2.679-1.476,5.651-2.089,8.783
				H163.625z"/>
		</g>
		<g>
			<path fill="#7085E7" d="M166.403,166.142c-0.307-2.864-0.663-5.826-1.074-8.788H34.663c-0.409,2.962-0.766,5.924-1.07,8.788
				H166.403z"/>
		</g>
		<g>
			<path fill="#7085E7" d="M167.952,185.241c-0.129-2.258-0.322-5.285-0.594-8.785H32.643c-0.276,3.5-0.465,6.527-0.591,8.785
				H167.952z"/>
		</g>
	</g>
	<g>
		<path fill="#3C60D1" d="M79.988,113.939c1.779,8.84,10.054,15.53,20.008,15.53c9.952,0,18.23-6.69,20.011-15.53
			c-1.393-0.19-2.502-0.321-3.215-0.398c-1.57,7.35-8.486,12.887-16.796,12.887c-8.307,0-15.228-5.537-16.796-12.887
			C82.487,113.618,81.378,113.749,79.988,113.939z"/>
	</g>
	<g>
		<g>
			<g>
				<path fill="#3C60D1" d="M58.802,153.21c-0.045,0.162-3.334,15.648-4.306,36.333H52.35c0.96-20.934,4.304-36.622,4.337-36.784
					c0.129-0.584,0.701-0.96,1.282-0.831C58.551,152.057,58.929,152.628,58.802,153.21z"/>
			</g>
		</g>
		<g>
			<g>
				<path fill="#3C60D1" d="M147.648,189.543h-2.153c-0.973-20.685-4.26-36.171-4.307-36.333c-0.117-0.582,0.251-1.153,0.831-1.282
					c0.585-0.129,1.155,0.247,1.284,0.831C143.337,152.921,146.681,168.609,147.648,189.543z"/>
			</g>
		</g>
	</g>
	<g>
		<path fill="#1A1A1A" d="M65.84,71.773c0,0-5.76-4.403-4.915-7.959c0.851-3.557,1.697-4.064,1.697-4.064s-4.742-4.403-3.728-7.791
			c1.016-3.387,3.22-3.895,3.22-3.895s-3.388-4.233-1.525-8.806c1.861-4.573,3.894-4.742,3.894-4.742s-3.386-4.572-0.843-7.451
			c2.54-2.879,5.584-2.709,5.584-2.709s-0.674-6.266,4.235-7.959c4.911-1.693,7.281,0.508,7.281,0.508s3.39-6.097,8.807-5.419
			c5.42,0.678,5.93,2.032,5.93,2.032s4.739-4.573,9.483-2.54c4.737,2.032,4.737,3.217,4.737,3.217s3.729-3.387,8.3-1.354
			c4.574,2.032,4.063,5.08,4.063,5.08s4.914-1.185,7.625,1.186c2.707,2.371,1.521,5.25,1.521,5.25s4.406,0.847,5.926,4.742
			c1.525,3.895-0.506,5.25-0.506,5.25s4.402,3.217,4.402,7.791c0,4.571-2.709,6.604-2.709,6.604s2.202,3.387,1.525,6.943
			c-0.679,3.557-3.051,5.081-3.051,5.081s2.035,3.557,0.677,6.944c-1.354,3.386-3.724,4.741-3.724,4.741s-3.218-6.266-2.369-9.484
			c0.844-3.217,1.354-4.403,1.354-4.403s-3.894-2.202-3.894-5.418c0-3.219,1.861-5.589,1.861-5.589s-4.233-0.677-5.249-3.895
			c-1.019-3.218-1.019-3.895-1.019-3.895s-3.214,2.71-7.96,1.524c-4.74-1.186-5.419-2.879-5.419-2.879s-3.556,4.065-7.45,3.387
			c-3.892-0.678-5.756-2.879-5.756-2.879s-3.051,4.742-7.453,4.064c-4.404-0.677-6.774-3.557-6.774-3.557s1.186,3.557-3.724,4.912
			c-4.911,1.354-8.3,0.508-8.3,0.508s2.202,3.895,0.338,6.943c-1.859,3.049-3.724,2.878-3.724,3.895
			c0,1.017,2.032,3.895,0.847,7.451C67.87,66.693,65.84,71.773,65.84,71.773z"/>
	</g>
	<g>
		<path fill="#C3634B" d="M99.483,91.245c-6.404,0-10.498-1.627-10.754-1.732c-0.29-0.12-0.431-0.452-0.311-0.743
			c0.117-0.292,0.453-0.433,0.742-0.313c0.091,0.038,9.219,3.646,21.466-0.018c0.309-0.09,0.621,0.082,0.714,0.383
			c0.086,0.301-0.085,0.618-0.384,0.709C106.662,90.815,102.77,91.245,99.483,91.245z"/>
	</g>
	<g>
		<path fill="#C3634B" d="M99.735,94.339c-2.885,0-4.741-0.739-4.772-0.749c-0.073-0.029-0.105-0.114-0.075-0.188
			c0.029-0.07,0.114-0.105,0.186-0.076c0.041,0.015,4.127,1.634,9.606-0.004c0.081-0.025,0.152,0.019,0.176,0.095
			c0.025,0.076-0.02,0.155-0.095,0.177C102.893,94.154,101.185,94.339,99.735,94.339z"/>
	</g>
</g>
</svg>
