<?xml version="1.0" encoding="utf-8"?>
<!-- Generator: Adobe Illustrator 16.0.0, SVG Export Plug-In . SVG Version: 6.00 Build 0)  -->
<!DOCTYPE svg PUBLIC "-//W3C//DTD SVG 1.1//EN" "http://www.w3.org/Graphics/SVG/1.1/DTD/svg11.dtd">
<svg version="1.1" id="Layer_1" xmlns="http://www.w3.org/2000/svg" xmlns:xlink="http://www.w3.org/1999/xlink" x="0px" y="0px"
	 width="200px" height="200px" viewBox="0 0 200 200" enable-background="new 0 0 200 200" xml:space="preserve">
<g>
	<g>
		<path fill="#1A1A1A" d="M79.32,17.173c-0.082,0.068-2.921-0.275-3.277-0.225c-3.104,0.442-6.24,2.94-8.221,5.231
			c-5.334,6.175-4.935,15.219-8.087,22.416c-1.966,4.492-5.251,8.387-6.647,13.088c-2.537,8.529,1.579,18.14-1.604,26.451
			c-1.454,3.799-4.28,6.875-6.616,10.208c-2.335,3.333-4.265,7.343-3.521,11.342c0.339,1.81,1.203,3.475,1.739,5.236
			c1.186,3.923,0.688,8.135,0.141,12.197s-1.13,8.248-0.089,12.213c1.387,5.277,4.649,7.2,9.505,7.979
			c3.854,0.619,7.093,2.512,10.731,3.893c7.466,2.835,15.358,4.527,23.245,5.651c15.959,2.281,32.799,2.569,48.677-0.509
			c11.385-2.206,25.126-7.659,25.658-21.404c0.229-5.943-1.945-11.688-4.1-17.234c-2.158-5.546-4.358-11.273-4.183-17.221
			c0.114-3.862,1.232-7.632,1.494-11.486c0.313-4.584-0.613-9.247-2.661-13.361c-2.134-4.289-5.481-8.073-6.467-12.761
			c-1.064-5.045,0.8-10.225,0.815-15.381c0.018-5.802-2.439-11.571-6.634-15.582c-2.107-2.016-4.606-3.586-6.722-5.596
			c-1.684-1.602-3.101-3.461-4.701-5.146C114.966,3.682,92.905,5.744,79.32,17.173z"/>
	</g>
	<g>
		<g>
			<path fill="#FAAB9E" d="M113.797,116.161c-2.3-4.599-0.918-15.175-0.918-15.175l-12.877-0.918l-12.875,0.918
				c0,0,1.377,10.576-0.922,15.175c-2.299,4.601-23.45,6.899-23.45,6.899s0,5.519,3.675,12.875
				c2.902,5.801,22.097,8.456,30.086,9.322c2.319,0.25,4.653,0.25,6.973,0c7.991-0.866,27.182-3.521,30.082-9.322
				c3.679-7.356,3.679-12.875,3.679-12.875S116.098,120.762,113.797,116.161z"/>
		</g>
		<g>
			<path fill="#ED998D" d="M113.797,116.161c-2.3-4.599-0.918-15.175-0.918-15.175l-12.877-0.918l-12.875,0.918
				c0,0,0.443,3.433,0.406,7.235c4.553,5.21,10.682,9.512,18.929,11.213c6.024,1.245,11.52,1.505,16.446,1.105
				C118.573,119.441,114.705,117.983,113.797,116.161z"/>
		</g>
	</g>
	<g>
		<g>
			<g>
				<path fill="#FAAB9E" d="M68.59,71.377c0,0-2.991-6.875-8.668-4.184c-5.681,2.69-0.896,14.944,4.78,16.439
					c5.681,1.494,7.174-1.196,6.575-5.082C70.68,74.665,68.59,71.377,68.59,71.377z"/>
			</g>
			<g>
				<path fill="#ED998D" d="M69.124,75.25c0,0-4.441-8.157-8.238-5.492c-2.738,1.922,0.567,7.834,0.648,6.462
					c0.081-1.373-1.94-4.281-0.405-4.927c1.533-0.646,4.038,0.808,3.392,2.1c-0.646,1.292-1.455,4.2-0.242,4.039
					c1.211-0.162,2.262-0.969,2.262-0.162c0,0.808-1.454,0.969-0.726,2.666c0.726,1.696,3.876,1.776,4.038-0.485
					S69.124,75.25,69.124,75.25z"/>
			</g>
		</g>
		<g>
			<g>
				<path fill="#FAAB9E" d="M131.592,71.377c0,0,2.988-6.875,8.668-4.184c5.677,2.69,0.896,14.944-4.78,16.439
					c-5.682,1.494-7.176-1.196-6.58-5.082C129.497,74.665,131.592,71.377,131.592,71.377z"/>
			</g>
			<g>
				<path fill="#ED998D" d="M131.321,75.25c0,0,4.443-8.157,8.24-5.492c2.736,1.922-0.569,7.834-0.648,6.462
					c-0.079-1.373,1.938-4.281,0.403-4.927c-1.533-0.646-4.036,0.808-3.392,2.1c0.647,1.292,1.456,4.2,0.242,4.039
					c-1.211-0.162-2.26-0.969-2.26-0.162c0,0.808,1.452,0.969,0.726,2.666c-0.726,1.696-3.878,1.776-4.038-0.485
					S131.321,75.25,131.321,75.25z"/>
			</g>
		</g>
		<g>
			<path fill="#FAAB9E" d="M133.568,39.63c-6.58-20.026-33.479-20.026-33.479-20.026s-26.902,0-33.476,20.026
				c-5.043,15.358-1.791,44.236,8.67,58.583c2.595,3.563,5.436,6.315,8.233,8.44c9.852,7.476,23.296,7.476,33.147,0
				c2.799-2.125,5.635-4.877,8.234-8.44C135.359,83.866,138.61,54.988,133.568,39.63z"/>
		</g>
		<path fill="#F2A196" d="M133.568,39.63c-1.879-5.71-5.405-9.789-9.491-12.706c1.383,15.93,1.961,41.169-5.731,56.845
			c-9.986,20.339-14.713,25.812-27.651,26.797c8.592,3.156,18.354,1.866,25.97-3.913c2.799-2.125,5.635-4.877,8.234-8.44
			C135.359,83.866,138.61,54.988,133.568,39.63z"/>
		<g>
			<path fill="#C3634B" d="M100.257,86.769c-0.201,0-0.374-0.014-0.504-0.04c-0.309-0.062-0.509-0.361-0.447-0.671
				c0.062-0.309,0.376-0.509,0.671-0.446c0.779,0.159,5.037-0.56,6.537-2.62c0.979-1.349-1.304-5.298-2.964-8.181
				c-0.681-1.181-1.328-2.295-1.761-3.224c-1.453-3.081,0.822-5.668,2.228-6.606c0.261-0.175,0.615-0.103,0.789,0.158
				c0.177,0.26,0.105,0.614-0.156,0.789c-0.132,0.089-3.225,2.214-1.83,5.174c0.418,0.884,1.047,1.979,1.716,3.138
				c2.121,3.675,4.315,7.474,2.898,9.421C105.851,85.84,101.947,86.769,100.257,86.769z"/>
		</g>
		<g>
			<path fill="#D14646" d="M107.335,93.058c-8.291,1.861-13.868-0.194-16.319-1.476c-0.479-0.25-1,0.259-0.758,0.743
				c1.104,2.196,3.735,5.879,9.012,6.033c5.471,0.16,7.821-2.841,8.696-4.502C108.193,93.429,107.806,92.952,107.335,93.058z"/>
		</g>
		<path fill="#EC6565" d="M94.12,96.768c1.341,0.88,3.022,1.528,5.149,1.59c2.119,0.061,3.758-0.355,5.038-0.98
			C99.975,94.394,96.247,95.549,94.12,96.768z"/>
		<g>
			<circle fill="#1A1A1A" cx="85.251" cy="69.686" r="3.497"/>
		</g>
		<circle fill="#FFFFFF" cx="85.893" cy="71.263" r="1.07"/>
		<g>
			<circle fill="#1A1A1A" cx="115.646" cy="69.686" r="3.497"/>
		</g>
		<circle fill="#FFFFFF" cx="116.468" cy="71.263" r="1.07"/>
		<g>
			<path fill="#1A1A1A" d="M89.396,60.586c0,0-3.454-3.603-7.358-2.102c-3.901,1.5-5.251,4.354-5.251,4.354
				S83.239,58.334,89.396,60.586z"/>
		</g>
		<g>
			<path fill="#1A1A1A" d="M110.263,60.586c0,0,3.453-3.603,7.354-2.102c3.904,1.5,5.255,4.354,5.255,4.354
				S116.418,58.334,110.263,60.586z"/>
		</g>
	</g>
	<g>
		<path fill="#FCDD59" d="M157.344,131.236c-8.116-11.037-35.219-14.474-40.546-15.05c-1.57,7.35-8.492,19.921-16.796,19.921
			c-8.308,0-15.228-12.571-16.794-19.921c-5.331,0.576-32.432,4.013-40.548,15.05c-9.018,12.265-10.82,60.952-10.82,60.952h68.162
			h68.158C168.16,192.188,166.359,143.501,157.344,131.236z"/>
	</g>
	<g opacity="0.5">
		<path fill="#FCDD59" d="M168.16,192.188c0,0-1.801-48.688-10.816-60.952c-1.775-2.413-4.46-4.464-7.626-6.199
			c-0.904-0.497-1.848-0.968-2.819-1.413c-2.919-1.34-6.106-2.456-9.285-3.385c-6.892-2.015-13.758-3.139-17.879-3.692
			c-1.265-0.172-2.273-0.289-2.937-0.36c-0.342,1.595-0.934,3.435-1.737,5.34c4.126,0.578,13.191,2.975,17.2,12.994
			c3.953,9.891-3.963,41.79-8.161,57.668H168.16z"/>
	</g>
	<g>
		<g>
			<g>
				<path fill="#BFB23B" d="M58.8,155.855c-0.045,0.162-3.332,15.648-4.304,36.333H52.35c0.96-20.934,4.304-36.622,4.337-36.784
					c0.131-0.584,0.699-0.96,1.284-0.831C58.553,154.702,58.931,155.273,58.8,155.855z"/>
			</g>
		</g>
		<g>
			<g>
				<path fill="#BFB23B" d="M147.652,192.188h-2.157c-0.969-20.685-4.262-36.171-4.303-36.333c-0.121-0.582,0.249-1.153,0.829-1.282
					c0.583-0.129,1.155,0.247,1.284,0.831C143.337,155.566,146.681,171.255,147.652,192.188z"/>
			</g>
		</g>
	</g>
	<g>
		<path fill="#1A1A1A" d="M82.973,39.329c-0.592,3.223-1.979,6.931-4.136,9.438c-3.057,3.554-5.972,6.069-6.08,11.197
			c-0.121,5.652,3.253,11.136,2.252,16.701c-0.976,5.45-5.989,9.808-5.934,15.345c0.018,1.734,0.552,3.459,0.328,5.179
			c-0.218,1.721-1.629,3.518-3.34,3.243c-2.345-0.374-2.521-3.608-2.443-5.978c0.184-5.656-1.54-10.139-5.1-14.296
			c-3.47-4.05-3.689-10.268-1.669-15.171c2.797-6.794,3.396-6.994,4.997-14.988c1.599-7.994,4.395-22.583,10.989-26.778
			c6.597-4.197,18.387-8.594,29.177-7.595c10.793,1,21.582,1.599,28.179,12.59c6.595,10.991,6.593,18.051,7.594,25.78
			c0.594,4.585-0.018,9.554-2.908,13.33c-1.813-0.902-2.44-3.167-2.614-5.186c-0.334-3.884-0.544-6.7-3.979-8.766
			c-3.698-2.224-7.491-3.648-9.822-7.57c-0.979-1.654-1.572-3.542-2.77-5.047c-2.165-2.722-5.866-3.665-9.325-4.014
			c-7-0.708-14.117,0.317-21.063-0.801c-0.884-0.142-1.816-0.344-2.469-0.961c-0.647-0.616-0.861-1.781-0.202-2.389
			C83.342,34.833,83.38,37.11,82.973,39.329z"/>
	</g>
</g>
</svg>
