<?xml version="1.0" encoding="utf-8"?>
<!-- Generator: Adobe Illustrator 16.0.0, SVG Export Plug-In . SVG Version: 6.00 Build 0)  -->
<!DOCTYPE svg PUBLIC "-//W3C//DTD SVG 1.1//EN" "http://www.w3.org/Graphics/SVG/1.1/DTD/svg11.dtd">
<svg version="1.1" id="Layer_1" xmlns="http://www.w3.org/2000/svg" xmlns:xlink="http://www.w3.org/1999/xlink" x="0px" y="0px"
	 width="200px" height="200px" viewBox="0 0 200 200" enable-background="new 0 0 200 200" xml:space="preserve">
<g>
	<g>
		<path fill="#4C1C11" d="M73.295,35.037c0,0-15.958,41.034-15.198,62.312c0.76,21.279,22.797,44.836,60.794,37.996
			c37.992-6.84,26.596-50.154,18.998-75.229C130.289,35.037,117.369,5.4,73.295,35.037z"/>
	</g>
	<g>
		<g>
			<path fill="#FAAB9E" d="M113.79,116.692c-2.297-4.598-0.918-15.174-0.918-15.174l-12.877-0.922l-12.875,0.922
				c0,0,1.379,10.576-0.92,15.174c-2.301,4.598-23.453,6.896-23.453,6.896s0,5.52,3.68,12.877c2.899,5.801,22.091,8.459,30.084,9.32
				c2.318,0.25,4.651,0.25,6.969,0c7.994-0.861,27.185-3.52,30.085-9.32c3.682-7.357,3.682-12.877,3.682-12.877
				S116.091,121.29,113.79,116.692z"/>
		</g>
		<g>
			<path fill="#ED998D" d="M113.79,116.692c-2.297-4.598-0.918-15.174-0.918-15.174l-12.877-0.922l-12.875,0.922
				c0,0,0.445,3.43,0.406,7.23c4.555,5.215,10.681,9.512,18.928,11.215c6.025,1.244,11.521,1.504,16.45,1.107
				C118.568,119.97,114.702,118.513,113.79,116.692z"/>
		</g>
	</g>
	<g>
		<g>
			<path fill="#FAAB9E" d="M68.494,71.906c0,0-2.989-6.876-8.669-4.185c-5.678,2.692-0.896,14.944,4.783,16.441
				c5.68,1.492,7.174-1.196,6.576-5.083C70.587,75.194,68.494,71.906,68.494,71.906z"/>
		</g>
		<g>
			<path fill="#ED998D" d="M69.03,75.78c0,0-4.442-8.158-8.238-5.49c-2.736,1.919,0.565,7.831,0.646,6.458
				c0.08-1.371-1.938-4.28-0.404-4.925c1.535-0.647,4.039,0.809,3.393,2.101s-1.453,4.197-0.242,4.039
				c1.212-0.162,2.262-0.972,2.262-0.162c0,0.807-1.454,0.969-0.728,2.663c0.728,1.697,3.877,1.78,4.039-0.485
				C69.919,77.719,69.03,75.78,69.03,75.78z"/>
		</g>
	</g>
	<g>
		<g>
			<path fill="#FAAB9E" d="M131.498,71.906c0,0,2.988-6.876,8.668-4.185c5.678,2.692,0.896,14.944-4.781,16.441
				c-5.68,1.492-7.176-1.196-6.578-5.083C129.406,75.194,131.498,71.906,131.498,71.906z"/>
		</g>
		<g>
			<path fill="#ED998D" d="M131.227,75.78c0,0,4.443-8.158,8.24-5.49c2.736,1.919-0.564,7.831-0.646,6.458
				c-0.082-1.371,1.938-4.28,0.404-4.925c-1.535-0.647-4.039,0.809-3.393,2.101s1.455,4.197,0.242,4.039
				c-1.211-0.162-2.264-0.972-2.264-0.162c0,0.807,1.457,0.969,0.73,2.663c-0.73,1.697-3.879,1.78-4.039-0.485
				C130.34,77.719,131.227,75.78,131.227,75.78z"/>
		</g>
	</g>
	<g>
		<path fill="#FDC0AE" d="M133.473,40.158c-6.576-20.025-33.478-20.025-33.478-20.025s-26.9,0-33.477,20.025
			c-5.042,15.359-1.793,44.236,8.669,58.583c2.598,3.566,5.436,6.318,8.234,8.441c9.85,7.475,23.296,7.475,33.147,0
			c2.8-2.123,5.638-4.875,8.235-8.441C135.268,84.395,138.516,55.518,133.473,40.158z"/>
	</g>
	<path fill="#F5AFA2" d="M133.473,40.158c-6.576-20.025-33.478-20.025-33.478-20.025s-15.679,0.012-26.021,8.927
		c0.443,2.335,0.807,3.843,0.807,3.843c0,1.711,6.839,22.795,25.646,30.203c18.808,7.41,22.798,14.819,21.659,26.218
		c-0.973,9.723-16.044,19.854-30.005,22.27c8.218,2.498,17.307,1.041,24.488-4.41c2.8-2.123,5.638-4.875,8.235-8.441
		C135.268,84.395,138.516,55.518,133.473,40.158z"/>
	<g>
		<path fill="#C3634B" d="M100.165,88.436c-0.203,0-0.374-0.01-0.505-0.036c-0.31-0.062-0.51-0.362-0.446-0.671
			c0.061-0.309,0.373-0.508,0.669-0.447c0.784,0.158,5.036-0.56,6.534-2.617c0.98-1.352-1.299-5.305-2.965-8.186
			c-0.682-1.183-1.322-2.295-1.76-3.223c-1.451-3.081,0.825-5.667,2.23-6.604c0.262-0.175,0.615-0.104,0.79,0.158
			c0.175,0.259,0.104,0.615-0.156,0.789c-0.132,0.089-3.225,2.214-1.833,5.174c0.416,0.881,1.047,1.979,1.717,3.135
			c2.121,3.678,4.316,7.479,2.898,9.424C105.755,87.511,101.854,88.436,100.165,88.436z"/>
	</g>
	<g>
		<path fill="#DD5151" d="M106.097,93.328c-5.936,1.925-10.869,0.596-13.91-0.808c-0.989-0.455-1.949,0.691-1.344,1.599
			c1.766,2.638,4.695,5.772,8.652,5.771c4.19,0,6.611-2.814,7.859-4.994C107.839,94.053,107.021,93.027,106.097,93.328z"/>
	</g>
	<path fill="#FFFFFF" d="M93.292,92.986c0.115,0.645,0.418,1.444,1.225,1.901c1.486,0.841,7.775,1.437,9.807,0.348
		c0.814-0.439,1.197-1.13,1.375-1.805C100.606,94.971,96.279,94.153,93.292,92.986z"/>
	<path fill="#EC6565" d="M104.561,98.182c-3.394-1.836-6.88-0.727-9.173,0.517c1.213,0.722,2.582,1.191,4.107,1.191
		C101.608,99.89,103.271,99.171,104.561,98.182z"/>
	<g>
		<path fill="#722616" d="M88.564,73.226c0,1.882-1.526,3.405-3.407,3.405c-1.883,0-3.409-1.523-3.409-3.405
			c0-1.884,1.526-3.409,3.409-3.409C87.038,69.816,88.564,71.342,88.564,73.226z"/>
	</g>
	<path fill="#FFFFFF" d="M84.655,72.181c0,0.592-0.48,1.071-1.072,1.071c-0.594,0-1.074-0.479-1.074-1.071
		c0-0.597,0.48-1.074,1.074-1.074C84.175,71.106,84.655,71.584,84.655,72.181z"/>
	<g>
		<path fill="#722616" d="M119.064,73.226c0,1.882-1.525,3.405-3.409,3.405c-1.883,0-3.408-1.523-3.408-3.405
			c0-1.884,1.525-3.409,3.408-3.409C117.539,69.816,119.064,71.342,119.064,73.226z"/>
	</g>
	<path fill="#FFFFFF" d="M115.151,72.181c0,0.592-0.479,1.071-1.072,1.071c-0.592,0-1.07-0.479-1.07-1.071
		c0-0.597,0.479-1.074,1.07-1.074C114.673,71.106,115.151,71.584,115.151,72.181z"/>
	<g>
		<path fill="#722616" d="M89.301,64.124c0,0-3.452-3.603-7.356-2.103c-3.903,1.503-5.254,4.354-5.254,4.354
			S83.146,61.873,89.301,64.124z"/>
	</g>
	<g>
		<path fill="#722616" d="M110.167,64.124c0,0,3.451-3.603,7.358-2.103c3.902,1.503,5.252,4.354,5.252,4.354
			S116.323,61.873,110.167,64.124z"/>
	</g>
	<g>
		<path fill="#7085E7" d="M168.162,192.718H31.839c0,0,1.801-48.691,10.816-60.953c8.119-11.033,35.21-14.471,40.548-15.041
			c1.563,7.34,8.487,25.211,16.792,25.211c8.303,0,15.227-17.871,16.791-25.211c5.337,0.57,32.438,4.008,40.55,15.041
			C166.352,144.026,168.162,192.718,168.162,192.718z"/>
	</g>
	<g opacity="0.3">
		<path fill="#7085E7" d="M168.162,192.718c0,0-1.811-48.691-10.826-60.953c-8.111-11.033-35.213-14.471-40.55-15.041
			c-0.275,1.281-0.715,2.895-1.295,4.668c2.552,0.664,12.569,4.074,17.72,17.654c4.162,10.965,0.363,37.848-1.531,53.672H168.162z"
			/>
	</g>
	<g>
		<g>
			<g>
				<path fill="#BA353F" d="M58.799,156.386c-0.044,0.162-3.333,15.648-4.304,36.332h-2.146c0.96-20.932,4.303-36.623,4.336-36.787
					c0.13-0.582,0.701-0.957,1.283-0.828S58.928,155.804,58.799,156.386z"/>
			</g>
		</g>
		<g>
			<g>
				<path fill="#BA353F" d="M147.65,192.718h-2.154c-0.973-20.684-4.26-36.17-4.305-36.332c-0.117-0.582,0.248-1.154,0.828-1.283
					c0.586-0.129,1.156,0.246,1.285,0.828C143.338,156.095,146.682,171.786,147.65,192.718z"/>
			</g>
		</g>
	</g>
	<g>
		<path fill="#722616" d="M77.056,42.432c0,0-0.344,16.449-4.798,26.727c-4.455,10.282-6.169,36.665-0.685,45.917
			c5.482,9.252,16.104,8.908,16.104,8.908s-9.594,9.254-26.041,4.113S39.706,95.2,51.355,69.504
			c11.651-25.701,8.224-36.667,14.049-45.23c5.825-8.567,16.105-8.225,16.105-8.225s9.594-12.681,33.237-7.54
			c23.642,5.142,29.47,34.267,30.497,50.713c1.027,16.447,10.623,30.84,9.252,47.973c-1.369,17.133-10.967,22.613-21.93,22.273
			c-10.965-0.344-16.792-6.168-16.792-6.168s12.339-3.084,14.735-16.449c2.398-13.364,0.686-37.006-5.822-40.433
			c-6.514-3.428-12.815-6.118-26.045-7.881C83.222,56.481,77.056,42.432,77.056,42.432z"/>
	</g>
	<circle fill="#F7AD9E" cx="83.33" cy="87.857" r="5.129"/>
	<circle fill="#F7AD9E" cx="119.292" cy="87.857" r="5.129"/>
</g>
</svg>
