<?xml version="1.0" encoding="utf-8"?>
<!-- Generator: Adobe Illustrator 16.0.0, SVG Export Plug-In . SVG Version: 6.00 Build 0)  -->
<!DOCTYPE svg PUBLIC "-//W3C//DTD SVG 1.1//EN" "http://www.w3.org/Graphics/SVG/1.1/DTD/svg11.dtd">
<svg version="1.1" id="Layer_1" xmlns="http://www.w3.org/2000/svg" xmlns:xlink="http://www.w3.org/1999/xlink" x="0px" y="0px"
	 width="200px" height="200px" viewBox="0 0 200 200" enable-background="new 0 0 200 200" xml:space="preserve">
<g>
	<g>
		<path fill="#1A100C" d="M80.75,18.998c-4.895-5.299-12.577-0.073-15.919,4.098c-6.444,8.043-9.729,18.302-10.594,28.574
			c-0.866,10.271,0.56,20.613,2.732,30.688c1.85,8.562,3.132,17.139-3.369,24.027c-1.371,1.451-13.666,8.728-11.099,10.727
			c3.74,2.908,16.213,1.244,14.134,1.658c-2.078,0.417-9.977,2.079-8.729,4.991c1.246,2.909,20.786,8.731,34.92,7.067
			c14.137-1.663,44.068-4.987,52.8-6.651c8.728-1.664,9.973-4.572,9.973-4.572l-4.57-2.497c0,0,10.393,1.248,13.304-2.078
			c2.908-3.323-6.234,2.497-9.146-10.809c-2.91-13.301,8.728-36.583,0-64.852c-8.731-28.27-31.596-33.673-46.145-32.427
			C84.489,8.189,80.75,18.998,80.75,18.998z"/>
	</g>
	<g>
		<g>
			<path fill="#FAAB9E" d="M113.791,117.198c-2.3-4.597-0.917-15.174-0.917-15.174l-12.878-0.92l-12.875,0.92
				c0,0,1.381,10.577-0.92,15.174c-2.299,4.6-23.454,6.899-23.454,6.899s0,5.518,3.679,12.876c2.9,5.798,22.093,8.457,30.086,9.319
				c2.317,0.254,4.649,0.254,6.969,0c7.993-0.862,27.184-3.521,30.084-9.319c3.681-7.358,3.681-12.876,3.681-12.876
				S116.092,121.798,113.791,117.198z"/>
		</g>
		<g>
			<path fill="#ED998D" d="M113.791,117.198c-2.3-4.597-0.917-15.174-0.917-15.174l-12.878-0.92l-12.875,0.92
				c0,0,0.447,3.431,0.404,7.233c4.557,5.212,10.682,9.51,18.929,11.215c6.024,1.244,11.521,1.504,16.448,1.104
				C118.567,120.479,114.701,119.019,113.791,117.198z"/>
		</g>
	</g>
	<g>
		<g>
			<path fill="#FAAB9E" d="M68.497,72.416c0,0-2.988-6.874-8.668-4.187c-5.681,2.692-0.9,14.944,4.78,16.441
				c5.679,1.494,7.176-1.196,6.574-5.081C70.586,75.702,68.497,72.416,68.497,72.416z"/>
		</g>
		<g>
			<path fill="#ED998D" d="M69.031,76.288c0,0-4.44-8.158-8.237-5.491c-2.738,1.92,0.564,7.836,0.644,6.459
				c0.085-1.371-1.936-4.28-0.403-4.925c1.535-0.647,4.04,0.807,3.393,2.101c-0.645,1.292-1.454,4.201-0.241,4.037
				c1.209-0.161,2.262-0.968,2.262-0.161c0,0.808-1.454,0.968-0.729,2.664c0.729,1.695,3.878,1.778,4.042-0.481
				C69.92,78.228,69.031,76.288,69.031,76.288z"/>
		</g>
	</g>
	<g>
		<g>
			<path fill="#FAAB9E" d="M131.497,72.416c0,0,2.987-6.874,8.668-4.187c5.679,2.692,0.898,14.944-4.782,16.441
				c-5.679,1.494-7.174-1.196-6.575-5.081C129.405,75.702,131.497,72.416,131.497,72.416z"/>
		</g>
		<g>
			<path fill="#ED998D" d="M131.228,76.288c0,0,4.44-8.158,8.239-5.491c2.736,1.92-0.565,7.836-0.646,6.459
				c-0.079-1.371,1.936-4.28,0.402-4.925c-1.535-0.647-4.037,0.807-3.392,2.101c0.646,1.292,1.454,4.201,0.239,4.037
				c-1.207-0.161-2.26-0.968-2.26-0.161c0,0.808,1.455,0.968,0.729,2.664c-0.729,1.695-3.878,1.778-4.036-0.481
				C130.34,78.228,131.228,76.288,131.228,76.288z"/>
		</g>
	</g>
	<g>
		<path fill="#FDC0AE" d="M133.05,41.582C126.896,20.64,99.996,20.64,99.996,20.64s-26.901,0-33.055,20.941
			c-4.614,15.708-0.825,44.44,9.429,58.34c2.521,3.413,5.251,6.042,7.924,8.064c9.36,7.072,22.043,7.072,31.4,0
			c2.677-2.021,5.405-4.651,7.924-8.064C133.877,86.022,137.666,57.29,133.05,41.582z"/>
	</g>
	<path fill="#F7AA9B" d="M133.05,41.582C126.896,20.64,99.996,20.64,99.996,20.64s-16.385,0.002-26.503,9.96
		c-0.322,4.313-0.364,7.318-0.364,7.318c0.884,2.21,10.162,12.524,29.59,19.873c19.426,7.351,22.522,15.898,19.432,30.473
		c-2.638,12.439-12.688,21.958-25.731,24.759c6.66,0.934,13.583-0.734,19.275-5.038c2.677-2.021,5.405-4.651,7.924-8.064
		C133.877,86.022,137.666,57.29,133.05,41.582z"/>
	<path fill="#F79B8F" d="M87.296,89.287c0,2.792-2.266,5.062-5.06,5.062c-2.796,0-5.063-2.27-5.063-5.062
		c0-2.798,2.268-5.063,5.063-5.063C85.03,84.223,87.296,86.489,87.296,89.287z"/>
	<path fill="#F79B8F" d="M123.826,89.287c0,2.792-2.268,5.062-5.065,5.062c-2.796,0-5.063-2.27-5.063-5.062
		c0-2.798,2.268-5.063,5.063-5.063C121.559,84.223,123.826,86.489,123.826,89.287z"/>
	<g>
		<path fill="#C3634B" d="M100.166,87.805c-0.202,0-0.374-0.011-0.503-0.038c-0.311-0.062-0.512-0.362-0.448-0.671
			c0.063-0.311,0.374-0.508,0.67-0.449c0.78,0.158,5.034-0.558,6.534-2.617c0.982-1.348-1.299-5.299-2.965-8.182
			c-0.682-1.179-1.325-2.297-1.761-3.223c-1.45-3.083,0.825-5.667,2.229-6.608c0.263-0.173,0.617-0.102,0.791,0.16
			c0.176,0.259,0.106,0.615-0.156,0.789c-0.135,0.089-3.224,2.214-1.834,5.174c0.417,0.885,1.051,1.98,1.717,3.137
			c2.125,3.678,4.319,7.477,2.901,9.422C105.756,86.878,101.854,87.805,100.166,87.805z"/>
	</g>
	<g>
		<circle fill="#1A100C" cx="85.159" cy="70.724" r="2.336"/>
	</g>
	<g>
		<circle fill="#1A100C" cx="115.591" cy="70.724" r="2.334"/>
	</g>
	<g>
		<path fill="#1A100C" d="M89.159,60.917c0,0-3.016-3.979-7.067-2.939c-4.048,1.042-5.722,3.718-5.722,3.718
			S83.305,57.968,89.159,60.917z"/>
	</g>
	<g>
		<path fill="#1A100C" d="M110.21,60.823c0,0,3.076-3.934,7.11-2.833c4.032,1.105,5.663,3.803,5.663,3.803
			S116.109,57.963,110.21,60.823z"/>
	</g>
	<g>
		<path fill="#FD7479" d="M168.162,193.222H31.838c0,0,1.803-48.689,10.818-60.948c8.118-11.035,35.213-14.474,40.548-15.044
			c1.564,7.341,8.485,12.887,16.792,12.887c8.302,0,15.226-5.546,16.788-12.887c5.338,0.57,32.439,4.009,40.551,15.044
			C166.35,144.532,168.162,193.222,168.162,193.222z"/>
	</g>
	<g opacity="0.5">
		<path fill="#FD7479" d="M168.162,193.222c0,0-1.813-48.689-10.827-60.948c-8.111-11.035-35.213-14.474-40.551-15.044
			c-0.344,1.621-0.966,3.146-1.789,4.551c1.257,0.262,12.616,3.012,18.217,17.771c4.161,10.966,0.362,37.853-1.535,53.67H168.162z"
			/>
	</g>
	<g>
		<path fill="#EC4D58" d="M79.988,117.621c1.779,8.839,10.054,15.532,20.008,15.532c9.952,0,18.23-6.693,20.011-15.532
			c-1.393-0.191-2.502-0.322-3.215-0.399c-1.57,7.349-8.486,12.891-16.796,12.891c-8.307,0-15.228-5.542-16.796-12.891
			C82.487,117.299,81.378,117.432,79.988,117.621z"/>
	</g>
	<g>
		<g>
			<g>
				<path fill="#EC4D58" d="M58.802,156.893c-0.045,0.162-3.334,15.648-4.306,36.329H52.35c0.96-20.93,4.304-36.622,4.337-36.784
					c0.129-0.58,0.701-0.958,1.282-0.829C58.551,155.737,58.929,156.311,58.802,156.893z"/>
			</g>
		</g>
		<g>
			<g>
				<path fill="#EC4D58" d="M147.648,193.222h-2.153c-0.973-20.681-4.26-36.167-4.307-36.329c-0.117-0.582,0.251-1.155,0.831-1.284
					c0.585-0.129,1.155,0.249,1.284,0.829C143.337,156.6,146.681,172.292,147.648,193.222z"/>
			</g>
		</g>
	</g>
	<g>
		<path fill="#1A100C" d="M70.094,90.387c0,0-7.74-16.393-7.927-24.383c-0.191-8.076,1.226-22.934,5.541-32.213
			c4.372-9.387,19.43-17.095,32.173-16.897c12.736,0.198,27.777,8.69,31.365,16.315c3.556,7.555,6.254,22.64,5.886,31.483
			c-0.36,8.749-7.305,25.991-7.305,25.991s2.469-14.286-0.046-22.817c-2.544-8.615-10.56-16.381-10.56-16.381
			s2.653,4.363,3.872,8.516c1.205,4.13,1.001,7.306,1.001,7.306s-3.701-7.869-7.65-10.322c-3.962-2.46-17.37-12.375-17.37-12.375
			s2.079,4.019,5.438,6.876c3.342,2.85,9.045,7.388,9.045,7.388s-10.497-1.323-17.998-6.626c-7.55-5.34-12.091-10.33-12.091-10.33
			s1.656,4.99,3.595,7.093c1.936,2.096,3.063,3.237,3.063,3.237s-4.958-0.571-8.504-3.045c-3.558-2.485-5.521-5.17-5.521-5.17
			s1.977,3.641,0.604,8.597c-1.363,4.921-3.367,8.876-3.379,8.126c-0.013-0.754-0.557-4.715-1.411-8.126
			c0,0,0.218,3.411-1.778,7.559c-1.987,4.133-1.38,7.55-1.305,11.454C68.91,75.528,70.094,90.387,70.094,90.387z"/>
	</g>
	<g>
		<path fill="#EC6565" d="M92.723,93.089c2.946,0.58,8.882,1.369,15.079,0.014c0.76-0.17,1.367,0.653,0.967,1.316
			c-1.142,1.899-3.618,4.649-8.412,4.764c-4.5,0.104-7.215-2.748-8.55-4.717C91.361,93.804,91.943,92.937,92.723,93.089z"/>
	</g>
	<path fill="#F3F3F1" d="M94.919,95.037c2.707,0.702,10.88,0.76,12.287-0.596c0.494-0.477,0.813-0.93,1.031-1.319
		c-0.133-0.038-0.279-0.056-0.436-0.019c-6.197,1.355-12.133,0.566-15.079-0.014c-0.103-0.021-0.202-0.021-0.297-0.008
		C92.669,93.725,93.292,94.615,94.919,95.037z"/>
	<g>
		<g>
			<circle opacity="0.24" fill="#FFFFFF" cx="82.243" cy="74.365" r="12.805"/>
			<path fill="#F3F3F1" d="M82.242,88.317c-7.694,0-13.953-6.258-13.953-13.952c0-7.695,6.259-13.955,13.953-13.955
				s13.953,6.26,13.953,13.955C96.195,82.059,89.937,88.317,82.242,88.317z M82.242,62.703c-6.427,0-11.658,5.231-11.658,11.662
				c0,6.428,5.231,11.659,11.658,11.659c6.431,0,11.657-5.231,11.657-11.659C93.899,67.934,88.673,62.703,82.242,62.703z"/>
		</g>
		<g>
			<circle opacity="0.24" fill="#FFFFFF" cx="117.03" cy="74.365" r="12.805"/>
			<path fill="#F3F3F1" d="M117.027,88.317c-7.692,0-13.952-6.258-13.952-13.952c0-7.695,6.26-13.955,13.952-13.955
				c7.691,0,13.951,6.26,13.951,13.955C130.979,82.059,124.719,88.317,117.027,88.317z M117.027,62.703
				c-6.428,0-11.659,5.231-11.659,11.662c0,6.428,5.231,11.659,11.659,11.659c6.431,0,11.658-5.231,11.658-11.659
				C128.686,67.934,123.458,62.703,117.027,62.703z"/>
		</g>
		<g>
			<rect x="95.048" y="73.216" fill="#F3F3F1" width="9.177" height="2.294"/>
		</g>
	</g>
</g>
</svg>
