<?xml version="1.0" encoding="utf-8"?>
<!-- Generator: Adobe Illustrator 16.0.0, SVG Export Plug-In . SVG Version: 6.00 Build 0)  -->
<!DOCTYPE svg PUBLIC "-//W3C//DTD SVG 1.1//EN" "http://www.w3.org/Graphics/SVG/1.1/DTD/svg11.dtd">
<svg version="1.1" id="Layer_1" xmlns="http://www.w3.org/2000/svg" xmlns:xlink="http://www.w3.org/1999/xlink" x="0px" y="0px"
	 width="200px" height="200px" viewBox="0 0 200 200" enable-background="new 0 0 200 200" xml:space="preserve">
<g>
	<defs>
		<rect id="SVGID_1_" x="18.514" y="4.375" width="162.973" height="191.25"/>
	</defs>
	<clipPath id="SVGID_2_">
		<use xlink:href="#SVGID_1_"  overflow="visible"/>
	</clipPath>
	<g clip-path="url(#SVGID_2_)">
		<path fill="#A4DEEB" d="M94.186,15.514c-10.774,1.859-31.091,9.238-29.888,38.469l8.437,0.288c0,0,5.745-17.822,21.515-18.109
			c6.108-0.431,8.014-4.887,8.014-8.911c0-1.657-0.271-4.043-0.59-6.279C101.159,17.37,97.771,14.896,94.186,15.514z"/>
		<path fill="#A4DEEB" d="M108.649,15.514c10.774,1.859,31.092,9.238,29.889,38.469l-8.437,0.288c0,0-5.745-17.822-21.515-18.109
			c-6.108-0.431-8.014-4.887-8.014-8.911c0-1.657,0.271-4.043,0.59-6.279C101.677,17.37,105.064,14.896,108.649,15.514z"/>
		<g>
			<polygon fill="#79C0CC" points="74.824,61.637 68.236,95.619 58.651,117.685 76.967,147.875 114.532,152.243 142.486,123.625 
				135.486,94.029 125.279,67.673 			"/>
			<polygon fill="#E5A193" points="86.345,101.951 85.645,108.875 86.884,133.392 116.233,139.75 119.581,107.375 120.675,99.59 
				108.657,95.619 			"/>
			<polygon fill="#FFFFFF" points="101.338,118.936 119.581,107.375 121.418,112.078 125.279,152.243 84.081,172.125 
				74.824,129.375 82.045,112.078 85.645,108.875 			"/>
			<g>
				<g>
					<path fill="#EA2D83" d="M107.331,124.713c-0.876,4.094-3.708,8.679-5.993,8.679c-2.284,0-5.117-4.585-5.992-8.679
						c-1.237-5.783,2.001-5.777,5.992-5.777C105.33,118.936,108.567,118.93,107.331,124.713z"/>
				</g>
				<g>
					<path fill="#EA2D83" d="M107.197,137.4c2.287,6.541,0.723,17.325-5.859,17.325s-8.146-10.784-5.859-17.325
						c1.285-3.674,3.714-5.647,5.859-5.647S105.913,133.727,107.197,137.4z"/>
				</g>
			</g>
			<g>
				<path fill="#151C44" d="M121.418,112.078c0,0,55.295,10.482,63.941,26.992c8.648,16.51,24.371,53.983,24.371,53.983
					s13.891,26.154,10.221,32.076c-3.668,5.923-132.005,3.302-132.005,3.302l13.293-85.692L121.418,112.078z"/>
			</g>
			<g>
				<path fill="#151C44" d="M82.045,112.078c0,0-56.08,10.482-64.729,26.992c-8.647,16.51-24.371,53.983-24.371,53.983
					s-13.889,26.154-10.221,32.076c3.669,5.923,132.005,3.302,132.005,3.302l-13.293-85.692L82.045,112.078z"/>
			</g>
			<g>
				<path fill="#FDC0AE" d="M120.675,99.59c-2.75,4.894-13.954,11.019-19.568,11.019s-16.817-6.125-19.567-11.019
					c-8.641-15.378-18.058-45.302-8.549-60.159c4.161-6.502,21.537-9.977,29.257-9.879c7.182,0.091,23.183,3.781,26.977,9.879
					C138.543,54.407,129.315,84.212,120.675,99.59z"/>
			</g>
			<g>
				<path fill="#151C44" d="M77.397,59.589c0,0,0.009-0.081,0.058-0.219c0.056-0.131,0.12-0.368,0.276-0.598
					c0.075-0.124,0.158-0.261,0.248-0.41c0.102-0.139,0.229-0.271,0.361-0.423c0.255-0.325,0.605-0.604,1.008-0.9
					c0.389-0.338,0.876-0.534,1.387-0.805c0.513-0.278,1.088-0.383,1.681-0.571c0.298-0.096,0.604-0.164,0.912-0.188
					c0.309-0.04,0.622-0.078,0.939-0.105c0.34-0.025,0.587-0.074,1.011-0.078l0.899,0.025c0.307,0.021,0.583,0.018,0.915,0.061
					c0.333,0.042,0.664,0.102,0.99,0.156c0.333,0.043,0.641,0.125,0.939,0.218c0.299,0.09,0.604,0.164,0.881,0.271
					c1.13,0.421,2.043,0.888,2.834,1.275c0.403,0.182,0.773,0.349,1.101,0.496c0.331,0.16,0.634,0.254,0.88,0.364
					c0.496,0.204,0.789,0.352,0.789,0.352s-0.304,0.078-0.852,0.16c-0.272,0.028-0.613,0.115-0.995,0.099
					c-0.382,0-0.831,0.022-1.3-0.033c-0.465-0.05-0.994-0.103-1.498-0.203c-0.497-0.094-1.021-0.193-1.563-0.295
					c-0.52-0.067-1.059-0.185-1.575-0.219c-0.259-0.024-0.52-0.042-0.78-0.079c-0.262-0.033-0.589-0.022-0.88-0.038l-0.898-0.048
					c-0.259,0.006-0.516,0.013-0.771,0.019c-0.539,0.033-1.101-0.044-1.598,0.046c-0.498,0.077-1.029,0.045-1.475,0.164
					c-0.444,0.114-0.931,0.123-1.307,0.275c-0.39,0.131-0.784,0.216-1.088,0.372c-0.326,0.131-0.608,0.26-0.827,0.397
					C77.646,59.371,77.397,59.589,77.397,59.589z"/>
			</g>
			<g>
				<ellipse fill="#151C44" cx="86.345" cy="64.655" rx="2.264" ry="3.018"/>
			</g>
			<g>
				<path fill="#F7B9AA" d="M129.224,39.431c-2.599-4.177-10.924-7.223-18.219-8.757c-2.55,0.809-4.547,2.446-2.334,5.177
					c2.36,2.914,5.29,4.368,6.83,8.086c1.83,4.417,1.612,9.636-0.58,13.885c-3.742-0.237-7.725,1.511-9.493,4.817
					c-1.768,3.307-0.681,8.049,2.671,9.731c3.073,1.542,7.138,0.411,9.908,2.447c2.879,2.117,2.78,6.465,1.738,9.884
					c-2.075,6.808-6.594,12.559-11.019,18.133c-2.021,2.548-4.043,5.095-6.064,7.642c5.914-0.908,15.497-6.41,18.013-10.886
					C129.315,84.212,138.543,54.407,129.224,39.431z"/>
			</g>
			<g>
				<path fill="#151C44" d="M122.917,59.589c0,0-0.249-0.218-0.702-0.462c-0.219-0.137-0.502-0.266-0.827-0.397
					c-0.305-0.156-0.699-0.24-1.089-0.372c-0.376-0.153-0.862-0.161-1.308-0.275c-0.445-0.118-0.977-0.086-1.475-0.164
					c-0.497-0.091-1.059-0.013-1.598-0.046c-0.256-0.006-0.514-0.013-0.771-0.019l-0.898,0.048
					c-0.292,0.016-0.619,0.005-0.881,0.038c-0.26,0.037-0.521,0.055-0.78,0.079c-0.516,0.034-1.055,0.152-1.574,0.219
					c-0.542,0.103-1.065,0.202-1.563,0.296c-0.504,0.1-1.032,0.152-1.497,0.202c-0.469,0.055-0.918,0.033-1.3,0.033
					c-0.382,0.016-0.723-0.07-0.995-0.099c-0.548-0.082-0.852-0.16-0.852-0.16s0.292-0.148,0.789-0.352
					c0.246-0.11,0.55-0.205,0.88-0.364c0.328-0.147,0.697-0.314,1.101-0.496c0.791-0.386,1.704-0.854,2.834-1.275
					c0.277-0.107,0.582-0.181,0.881-0.271c0.299-0.093,0.607-0.174,0.94-0.218c0.326-0.054,0.656-0.114,0.989-0.156
					c0.332-0.043,0.607-0.041,0.915-0.061l0.899-0.025c0.423,0.003,0.671,0.053,1.011,0.078c0.317,0.028,0.631,0.065,0.939,0.105
					c0.309,0.023,0.614,0.092,0.911,0.188c0.594,0.188,1.169,0.293,1.682,0.571c0.511,0.271,0.998,0.466,1.387,0.805
					c0.403,0.296,0.753,0.575,1.009,0.9c0.132,0.152,0.26,0.285,0.361,0.423c0.09,0.149,0.173,0.286,0.247,0.41
					c0.156,0.23,0.221,0.467,0.276,0.598C122.908,59.508,122.917,59.589,122.917,59.589z"/>
			</g>
			<g>
				<ellipse fill="#151C44" cx="113.97" cy="64.655" rx="2.264" ry="3.018"/>
			</g>
			<g>
				<path fill="#151C44" d="M105.154,87.292c-3.287-1.24-4.581,0-4.581,0s-1.293-1.24-4.581,0c-3.288,1.239-4.581,2.802-6.845,2.264
					c0,0,2.91,1.725,5.82,1.186c2.793-0.517,4.097-0.735,5.436-0.561c0,0.007,0,0.013,0,0.02c0.028-0.004,0.058-0.006,0.086-0.01
					c0.028,0.004,0.056,0.006,0.084,0.01c0-0.007,0-0.013,0-0.02c1.353-0.175,2.812,0.042,5.605,0.56
					c2.91,0.539,5.821-1.186,5.821-1.186C109.736,90.094,108.442,88.531,105.154,87.292z"/>
			</g>
			<g>
				<path fill="#151C44" d="M95.776,94.029c0,0,2.803,1.563,10.51,0c-0.054,0.647-2.371,3.126-5.255,3.18
					C98.148,97.263,96.334,95.035,95.776,94.029z"/>
			</g>
			<g>
				<path fill="#F7B9AA" d="M97.016,76.279c-0.228,0-0.413-0.185-0.413-0.413c0-2.047,1.052-5.249,3.26-11.22
					c1.906-5.155-3.484-8.658-3.715-8.805c-0.192-0.123-0.249-0.377-0.127-0.57c0.123-0.192,0.377-0.249,0.569-0.127
					c0.063,0.039,6.187,4.003,4.047,9.788c-1.878,5.079-3.208,8.836-3.208,10.934C97.429,76.094,97.244,76.279,97.016,76.279z"/>
			</g>
			<g>
				<path fill="#F7B9AA" d="M98.633,86.214c-0.081,0-0.162-0.022-0.234-0.07c-0.226-0.146-0.823-0.535,0.502-4.304
					c0.078-0.224,0.323-0.342,0.55-0.264c0.225,0.079,0.343,0.325,0.264,0.55c-0.521,1.482-0.869,2.986-0.779,3.349
					c0.145,0.141,0.174,0.368,0.06,0.543C98.912,86.145,98.773,86.214,98.633,86.214z"/>
			</g>
			<g>
				<path fill="#F7B9AA" d="M93.891,65.193c-0.158,0-0.311-0.087-0.386-0.238c-0.074-0.146-1.864-3.59-7.185-3.894
					c-5.352-0.313-8.547,3.813-8.579,3.854c-0.144,0.189-0.415,0.228-0.604,0.083c-0.189-0.144-0.228-0.414-0.084-0.604
					c0.141-0.185,3.507-4.532,9.315-4.195c5.843,0.334,7.826,4.207,7.907,4.371c0.105,0.213,0.019,0.471-0.193,0.577
					C94.021,65.179,93.955,65.193,93.891,65.193z"/>
			</g>
			<g>
				<path fill="#F7B9AA" d="M106.286,65.193c-0.064,0-0.13-0.015-0.192-0.045c-0.212-0.106-0.299-0.364-0.193-0.577
					c0.081-0.165,2.064-4.037,7.907-4.371c5.819-0.326,9.176,4.01,9.315,4.195c0.144,0.19,0.105,0.46-0.084,0.604
					c-0.189,0.145-0.46,0.106-0.604-0.083c-0.031-0.042-3.219-4.157-8.579-3.854c-5.32,0.304-7.11,3.747-7.185,3.894
					C106.597,65.106,106.444,65.193,106.286,65.193z"/>
			</g>
			<g>
				<path fill="#151C44" d="M101.103,81.919c-0.055,0-0.113,0-0.167,0c-0.157,0-0.284-0.012-0.402-0.031
					c-0.634-0.052-0.887-0.203-1.053-0.64c-0.064-0.168-0.171-0.45-1.147-0.925c-1.027-0.499-1.285-0.289-1.642,0
					c-0.353,0.287-0.834,0.684-1.824,0.399c-0.625-0.178-1.063-0.516-1.304-1.002c-0.409-0.828-0.05-1.765-0.034-1.804
					c0.011-0.035,0.478-1.435,1.611-1.775c0.23-0.065,0.469,0.062,0.537,0.289c0.068,0.228-0.062,0.469-0.289,0.537
					c-0.581,0.174-0.954,0.955-1.049,1.241c-0.01,0.028-0.243,0.651-0.002,1.134c0.131,0.261,0.381,0.441,0.766,0.551
					c0.555,0.16,0.739,0.009,1.043-0.238c0.569-0.464,1.156-0.792,2.563-0.107c1.186,0.576,1.429,1.004,1.576,1.394
					c-0.003,0.033,0.066,0.067,0.35,0.091c0.123,0.019,0.226,0.026,0.342,0.023c0.189,0.001,0.289-0.005,0.382-0.019
					c0.313-0.028,0.383-0.062,0.39-0.065c0.138-0.419,0.381-0.847,1.565-1.423c1.408-0.684,1.995-0.357,2.563,0.107
					c0.305,0.248,0.489,0.398,1.044,0.238c0.386-0.11,0.637-0.292,0.767-0.555c0.238-0.482,0.008-1.101,0.005-1.106
					c-0.103-0.31-0.476-1.09-1.057-1.265c-0.229-0.068-0.357-0.309-0.289-0.537c0.068-0.228,0.307-0.357,0.537-0.289
					c1.134,0.34,1.601,1.74,1.62,1.8c0.007,0.015,0.366,0.952-0.043,1.78c-0.24,0.486-0.679,0.824-1.304,1.002
					c-0.99,0.283-1.472-0.111-1.824-0.399c-0.356-0.29-0.613-0.5-1.643,0c-0.976,0.475-1.083,0.756-1.146,0.925
					c-0.167,0.438-0.42,0.588-1.083,0.644C101.369,81.907,101.247,81.919,101.103,81.919z"/>
			</g>
			<g>
				<path fill="#F7B9AA" d="M94.86,104.628c-0.02,0-0.04-0.001-0.061-0.005c-0.226-0.033-0.381-0.242-0.349-0.467
					c0.008-0.049,0.779-4.881,6.614-4.881c0.228,0,0.413,0.185,0.413,0.413s-0.186,0.413-0.413,0.413
					c-5.105,0-5.771,4.004-5.797,4.174C95.237,104.48,95.062,104.628,94.86,104.628z"/>
			</g>
			<g>
				<path fill="#A4DEEB" d="M77.397,88.793c0-2.907-1.349-5.496-3.452-7.186c1.259-1.576,2.015-3.569,2.015-5.742
					c0-3.777-2.274-7.02-5.527-8.443c2.415-1.55,4.019-4.253,4.019-7.335c0-4.815-3.903-8.718-8.718-8.718s-8.718,3.903-8.718,8.718
					c0,3.483,2.048,6.481,5.002,7.877c-2.687,1.611-4.49,4.542-4.49,7.901c0,2.907,1.35,5.496,3.452,7.185
					c-1.258,1.576-2.015,3.569-2.015,5.743c0,1.943,0.604,3.744,1.632,5.23c-1.674,1.668-2.71,3.976-2.71,6.527
					c0,0.234,0.019,0.465,0.035,0.695c-2.599,1.016-4.67,3.074-5.697,5.668c-1.012-0.346-2.092-0.543-3.221-0.543
					c-5.501,0-9.961,4.46-9.961,9.961c0,5.502,4.46,9.961,9.961,9.961c4.167,0,7.731-2.561,9.218-6.191
					c1.052,0.373,2.179,0.586,3.358,0.586c5.561,0,10.068-4.508,10.068-10.068c0-0.666-0.068-1.316-0.191-1.945
					c2.894-1.555,4.862-4.608,4.862-8.123c0-1.944-0.604-3.745-1.632-5.231C76.361,93.651,77.397,91.343,77.397,88.793z"/>
			</g>
			<g>
				<path fill="#FFFCFA" d="M90.953,71.877h-8.14c-3.224,0-5.847-2.623-5.847-5.848c0-3.224,2.623-5.847,5.847-5.847h8.14
					c3.224,0,5.847,2.623,5.847,5.847C96.8,69.254,94.177,71.877,90.953,71.877z M82.813,61.045c-2.748,0-4.984,2.236-4.984,4.985
					c0,2.749,2.236,4.985,4.984,4.985h8.14c2.748,0,4.984-2.236,4.984-4.985c0-2.749-2.236-4.985-4.984-4.985H82.813z"/>
			</g>
			<g>
				<path fill="#FFFCFA" d="M118.603,71.877h-8.139c-3.225,0-5.848-2.623-5.848-5.848c0-3.224,2.623-5.847,5.848-5.847h8.139
					c3.224,0,5.847,2.623,5.847,5.847C124.449,69.254,121.826,71.877,118.603,71.877z M110.464,61.045
					c-2.749,0-4.985,2.236-4.985,4.985c0,2.749,2.236,4.985,4.985,4.985h8.139c2.748,0,4.985-2.236,4.985-4.985
					c0-2.749-2.237-4.985-4.985-4.985H110.464z"/>
			</g>
			<g>
				<path fill="#FFFCFA" d="M105.37,68.505c-0.238,0-0.431-0.193-0.431-0.431c0-2.017-1.636-3.658-3.646-3.658h-1.133
					c-2.011,0-3.646,1.641-3.646,3.658c0,0.238-0.193,0.431-0.432,0.431s-0.431-0.193-0.431-0.431c0-2.492,2.022-4.52,4.509-4.52
					h1.133c2.486,0,4.509,2.028,4.509,4.52C105.802,68.313,105.608,68.505,105.37,68.505z"/>
			</g>
			<g>
				<path fill="#A4DEEB" d="M125.279,88.793c0-2.907,1.349-5.496,3.451-7.186c-1.258-1.576-2.014-3.569-2.014-5.742
					c0-3.777,2.273-7.02,5.527-8.443c-2.415-1.55-4.02-4.253-4.02-7.335c0-4.815,3.904-8.718,8.719-8.718s8.717,3.903,8.717,8.718
					c0,3.483-2.047,6.481-5.001,7.877c2.687,1.611,4.489,4.542,4.489,7.901c0,2.907-1.35,5.496-3.451,7.185
					c1.258,1.576,2.014,3.569,2.014,5.743c0,1.943-0.604,3.744-1.631,5.23c1.674,1.668,2.709,3.976,2.709,6.527
					c0,0.234-0.018,0.465-0.035,0.695c2.6,1.016,4.67,3.074,5.697,5.668c1.012-0.346,2.094-0.543,3.221-0.543
					c5.502,0,9.961,4.46,9.961,9.961c0,5.502-4.459,9.961-9.961,9.961c-4.166,0-7.73-2.561-9.217-6.191
					c-1.053,0.373-2.18,0.586-3.358,0.586c-5.562,0-10.069-4.508-10.069-10.068c0-0.666,0.068-1.316,0.192-1.945
					c-2.894-1.555-4.862-4.608-4.862-8.123c0-1.944,0.604-3.745,1.631-5.231C126.314,93.651,125.279,91.343,125.279,88.793z"/>
			</g>
			<path fill="#FFFFFF" d="M-7.121,162.655c0,0-7.946,20.457,2.563,24.511c10.508,4.054,22.104-1.188,22.988-9.049
				c0.885-7.862-5.485-25.874-5.485-25.874L-7.121,162.655z"/>
			<path fill="#FF8C3E" d="M-3.365,163.568l0.041,0.176c1.59,6.769,10.084,9.407,14.962,4.454c0.95-0.964,1.715-2.174,2.173-3.69
				c2.621-8.666-5.503-23.604-5.503-23.604L-3.365,163.568z"/>
			<g>
				<path fill="#3D4B89" d="M171.7,203.144c-0.109,0-0.22-0.022-0.325-0.071c-9.703-4.427-8.832-9.504-8.195-13.211
					c0.272-1.584,0.487-2.835-0.163-3.656c-2.185-2.762-1.813-11.342-1.152-21.437c0.096-1.458,0.184-2.793,0.239-3.922
					c-69.191-8.659-119.89-1.151-120.396-1.075c-0.426,0.064-0.83-0.229-0.896-0.659c-0.065-0.429,0.229-0.83,0.659-0.896
					c0.51-0.077,51.755-7.67,121.551,1.16c0.404,0.052,0.703,0.404,0.687,0.812c-0.052,1.273-0.157,2.886-0.274,4.683
					c-0.438,6.675-1.17,17.847,0.816,20.358c1.085,1.371,0.791,3.084,0.479,4.897c-0.61,3.559-1.303,7.591,7.298,11.516
					c0.395,0.18,0.568,0.646,0.389,1.041C172.284,202.973,171.998,203.144,171.7,203.144z"/>
			</g>
			<g>
				<path fill="#3D4B89" d="M162.455,163.056c-0.035,0-0.07-0.002-0.105-0.007c-0.431-0.058-0.732-0.453-0.676-0.884
					c3.389-25.308,15.057-25.154,15.561-25.126c0.434,0.017,0.771,0.382,0.755,0.815c-0.017,0.433-0.396,0.744-0.812,0.756
					c-0.001,0-0.002,0-0.006,0c-0.309,0-10.791,0.244-13.939,23.764C163.18,162.769,162.842,163.056,162.455,163.056z"/>
			</g>
			
				<path fill="none" stroke="#3D4B89" stroke-width="1.5723" stroke-linecap="round" stroke-linejoin="round" stroke-miterlimit="10" d="
				M18.514,146.347c0,0,10.89,15.653,8.531,30.984c-2.358,15.33,5.503,29.612,5.503,29.612s1.572,4.586,0,10.172"/>
			<g>
				<path fill="#3D4B89" d="M46.568,217.901c-0.007,0-0.014,0-0.021,0c-0.435-0.012-0.777-0.373-0.766-0.807
					c0.52-19.816,8.117-59.313,8.194-59.709c0.082-0.427,0.492-0.707,0.921-0.622c0.427,0.082,0.705,0.494,0.623,0.921
					c-0.077,0.396-7.65,39.765-8.166,59.451C47.343,217.563,46.993,217.901,46.568,217.901z"/>
			</g>
			<g>
				<path fill="#3D4B89" d="M72.251,218.998c-0.036,0-0.073-0.002-0.11-0.008c-0.43-0.06-0.729-0.457-0.669-0.888
					c3.879-27.677,5.128-61.618,5.141-61.958c0.016-0.434,0.36-0.76,0.813-0.758c0.434,0.016,0.773,0.38,0.758,0.814
					c-0.013,0.34-1.264,34.36-5.155,62.12C72.974,218.714,72.637,218.998,72.251,218.998z"/>
			</g>
			<g>
				<path fill="#3D4B89" d="M101.403,217.901c-0.422,0-0.771-0.334-0.785-0.759c-0.112-3.168,0.461-6.069,1.187-9.742
					c0.585-2.96,1.313-6.644,1.897-11.557c1.285-10.792-1.791-39.299-1.822-39.586c-0.047-0.432,0.266-0.819,0.697-0.866
					c0.428-0.063,0.819,0.264,0.866,0.696c0.128,1.178,3.126,28.973,1.82,39.941c-0.592,4.973-1.326,8.689-1.916,11.676
					c-0.734,3.713-1.264,6.396-1.158,9.383c0.015,0.434-0.324,0.798-0.758,0.813C101.422,217.901,101.412,217.901,101.403,217.901z"
					/>
			</g>
			<g>
				<path fill="#3D4B89" d="M130.689,215.329c-0.066,0-0.135-0.009-0.203-0.026c-0.42-0.112-0.669-0.543-0.557-0.962
					c3.27-12.265-3.133-36.565-3.407-37.594c-1.082-4.059,1.703-18.736,1.822-19.359c0.081-0.427,0.491-0.7,0.919-0.625
					c0.428,0.082,0.707,0.493,0.625,0.92c-0.792,4.146-2.668,15.578-1.847,18.66c0.698,2.619,6.727,25.952,3.407,38.402
					C131.355,215.098,131.037,215.329,130.689,215.329z"/>
			</g>
			<g>
				<path fill="#3D4B89" d="M153.145,208.514c-0.321,0-0.623-0.199-0.738-0.519c-2.346-6.493-5.182-20.67-4.109-27.241
					c1.063-6.504,0.002-21.957-0.008-22.112c-0.031-0.434,0.296-0.809,0.729-0.839c0.434-0.02,0.81,0.297,0.84,0.729
					c0.045,0.642,1.082,15.792-0.009,22.476c-1.032,6.329,1.745,20.112,4.036,26.452c0.146,0.409-0.064,0.859-0.473,1.007
					C153.324,208.499,153.234,208.514,153.145,208.514z"/>
			</g>
		</g>
	</g>
</g>
<path fill="#151C44" d="M89.777,88.278c0,0-0.028,0.036-0.078,0.099c-0.051,0.061-0.115,0.154-0.195,0.262
	c-0.076,0.111-0.167,0.238-0.252,0.381c-0.047,0.069-0.084,0.146-0.128,0.221c-0.043,0.075-0.079,0.156-0.118,0.234
	c-0.032,0.081-0.073,0.16-0.099,0.241c-0.024,0.083-0.062,0.16-0.077,0.24c-0.018,0.08-0.044,0.156-0.051,0.23
	c-0.008,0.075-0.03,0.145-0.028,0.211c-0.002,0.066-0.008,0.127-0.012,0.182c0.001,0.055,0.005,0.102,0.007,0.142
	c0.004,0.079,0.004,0.125,0.004,0.125s-0.016-0.042-0.04-0.119c-0.011-0.039-0.026-0.086-0.04-0.141
	c-0.009-0.056-0.019-0.119-0.026-0.189c-0.013-0.07-0.003-0.146-0.002-0.226c-0.001-0.081,0.015-0.165,0.03-0.251
	c0.012-0.087,0.041-0.173,0.067-0.262c0.026-0.088,0.067-0.173,0.1-0.26c0.083-0.167,0.174-0.33,0.279-0.469
	c0.1-0.142,0.21-0.261,0.307-0.359c0.098-0.097,0.188-0.169,0.25-0.22C89.737,88.301,89.777,88.278,89.777,88.278z"/>
<path fill="#151C44" d="M111.17,88.278c0,0,0.027,0.036,0.077,0.099c0.051,0.061,0.115,0.154,0.194,0.262
	c0.076,0.111,0.168,0.238,0.252,0.381c0.047,0.069,0.084,0.146,0.129,0.221c0.043,0.075,0.078,0.156,0.118,0.234
	c0.032,0.081,0.073,0.16,0.099,0.241c0.024,0.083,0.063,0.16,0.077,0.24c0.018,0.08,0.044,0.156,0.052,0.23s0.029,0.145,0.027,0.211
	c0.003,0.066,0.008,0.127,0.013,0.182c-0.001,0.055-0.005,0.102-0.007,0.142c-0.004,0.079-0.004,0.125-0.004,0.125
	s0.016-0.042,0.039-0.119c0.011-0.039,0.026-0.086,0.04-0.141c0.009-0.056,0.019-0.119,0.026-0.189
	c0.012-0.07,0.003-0.146,0.002-0.226c0.002-0.081-0.016-0.165-0.029-0.251c-0.012-0.087-0.041-0.173-0.067-0.262
	c-0.026-0.088-0.067-0.173-0.101-0.26c-0.083-0.167-0.174-0.33-0.278-0.469c-0.101-0.142-0.21-0.261-0.307-0.359
	c-0.099-0.097-0.188-0.169-0.251-0.22C111.209,88.301,111.17,88.278,111.17,88.278z"/>
</svg>
